<mxfile host="app.diagrams.net" modified="2024-02-28T23:16:38.472Z" agent="Mozilla/5.0 (Macintosh; Intel Mac OS X 10_15_7) AppleWebKit/605.1.15 (KHTML, like Gecko) Version/16.6 Safari/605.1.15" etag="azbU9i1BS5Vlbn94waMe" version="23.1.7" type="github">
  <diagram name="Page-1" id="2Qo3VVF-3oib3DrqM41G">
    <mxGraphModel dx="995" dy="664" grid="1" gridSize="10" guides="1" tooltips="1" connect="1" arrows="1" fold="1" page="1" pageScale="1" pageWidth="850" pageHeight="1100" math="0" shadow="0">
      <root>
        <mxCell id="0" />
        <mxCell id="1" parent="0" />
        <mxCell id="80n4Q8HTgA_iZEEhI7hq-1" style="edgeStyle=orthogonalEdgeStyle;rounded=0;orthogonalLoop=1;jettySize=auto;html=1;exitX=0;exitY=0.5;exitDx=0;exitDy=0;entryX=0.75;entryY=1;entryDx=0;entryDy=0;dashed=1;dashPattern=12 12;fillColor=#d5e8d4;strokeColor=#7EA6E0;" edge="1" parent="1" source="80n4Q8HTgA_iZEEhI7hq-3" target="80n4Q8HTgA_iZEEhI7hq-4">
          <mxGeometry relative="1" as="geometry">
            <Array as="points">
              <mxPoint x="367" y="455.08000000000004" />
              <mxPoint x="310" y="455.08000000000004" />
              <mxPoint x="310" y="340.08000000000004" />
              <mxPoint x="106" y="340.08000000000004" />
            </Array>
          </mxGeometry>
        </mxCell>
        <mxCell id="80n4Q8HTgA_iZEEhI7hq-49" value="&lt;b&gt;&lt;font color=&quot;#7ea6e0&quot; style=&quot;font-size: 16px;&quot;&gt;3b. Return Endorsement&lt;/font&gt;&lt;/b&gt;" style="edgeLabel;html=1;align=center;verticalAlign=middle;resizable=0;points=[];" vertex="1" connectable="0" parent="80n4Q8HTgA_iZEEhI7hq-1">
          <mxGeometry x="0.4466" relative="1" as="geometry">
            <mxPoint x="20" y="20" as="offset" />
          </mxGeometry>
        </mxCell>
        <mxCell id="80n4Q8HTgA_iZEEhI7hq-3" value="&lt;font style=&quot;font-size: 19px;&quot;&gt;Peer&lt;/font&gt;&lt;br&gt;&lt;br&gt;&lt;br&gt;&lt;br&gt;&lt;br&gt;&lt;br&gt;&lt;br&gt;&lt;br&gt;&lt;br&gt;&lt;br&gt;&lt;div&gt;&lt;br/&gt;&lt;/div&gt;" style="html=1;overflow=block;blockSpacing=1;whiteSpace=wrap;fontSize=16.7;fontColor=#3a414a;spacing=3.8;strokeColor=#3a414a;strokeOpacity=100;rounded=1;absoluteArcSize=1;arcSize=9;strokeWidth=0.8;lucidId=gJdIC6EkD9Za;container=1;collapsible=0;" vertex="1" parent="1">
          <mxGeometry x="367" y="430.0300000000001" width="120" height="70.05" as="geometry" />
        </mxCell>
        <mxCell id="80n4Q8HTgA_iZEEhI7hq-33" value="&lt;font style=&quot;font-size: 17px;&quot;&gt;Merkle Tree Component&lt;/font&gt;" style="html=1;overflow=block;blockSpacing=1;whiteSpace=wrap;fontSize=16.7;spacing=3.8;strokeColor=#82b366;strokeOpacity=100;rounded=1;absoluteArcSize=1;arcSize=9;strokeWidth=0.8;lucidId=gJdI5SxZYz~T;fillColor=#d5e8d4;" vertex="1" parent="80n4Q8HTgA_iZEEhI7hq-3">
          <mxGeometry y="27" width="120" height="43" as="geometry" />
        </mxCell>
        <mxCell id="80n4Q8HTgA_iZEEhI7hq-44" style="edgeStyle=orthogonalEdgeStyle;rounded=0;orthogonalLoop=1;jettySize=auto;html=1;exitX=1;exitY=0;exitDx=0;exitDy=0;entryX=0;entryY=0.5;entryDx=0;entryDy=0;strokeColor=#336600;" edge="1" parent="1" source="80n4Q8HTgA_iZEEhI7hq-4" target="80n4Q8HTgA_iZEEhI7hq-37">
          <mxGeometry relative="1" as="geometry">
            <Array as="points">
              <mxPoint x="350" y="220.08000000000004" />
              <mxPoint x="350" y="394.08000000000004" />
            </Array>
          </mxGeometry>
        </mxCell>
        <mxCell id="80n4Q8HTgA_iZEEhI7hq-45" value="&lt;b&gt;&lt;font style=&quot;font-size: 16px;&quot; color=&quot;#336600&quot;&gt;0. Query Merkle Root&lt;/font&gt;&lt;/b&gt;" style="edgeLabel;html=1;align=center;verticalAlign=middle;resizable=0;points=[];" vertex="1" connectable="0" parent="80n4Q8HTgA_iZEEhI7hq-44">
          <mxGeometry x="-0.6368" y="1" relative="1" as="geometry">
            <mxPoint x="10" y="-9" as="offset" />
          </mxGeometry>
        </mxCell>
        <mxCell id="80n4Q8HTgA_iZEEhI7hq-4" value="&lt;font style=&quot;font-size: 19px;&quot;&gt;Client&lt;/font&gt;" style="html=1;overflow=block;blockSpacing=1;whiteSpace=wrap;fontSize=16.7;fontColor=#3a414a;spacing=3.8;strokeColor=#3a414a;strokeOpacity=100;rounded=1;absoluteArcSize=1;arcSize=9;strokeWidth=0.8;lucidId=gJdIgxv0D-uK;" vertex="1" parent="1">
          <mxGeometry x="50" y="220.0300000000001" width="75" height="75" as="geometry" />
        </mxCell>
        <mxCell id="80n4Q8HTgA_iZEEhI7hq-5" value="&lt;font style=&quot;font-size: 19px;&quot;&gt;Ordering Service&lt;/font&gt;" style="html=1;overflow=block;blockSpacing=1;whiteSpace=wrap;fontSize=16.7;fontColor=#3a414a;spacing=3.8;strokeColor=#3a414a;strokeOpacity=100;rounded=1;absoluteArcSize=1;arcSize=9;strokeWidth=0.8;lucidId=gJdIvHb7BSO.;" vertex="1" parent="1">
          <mxGeometry x="200" y="70.03000000000009" width="150" height="75" as="geometry" />
        </mxCell>
        <mxCell id="80n4Q8HTgA_iZEEhI7hq-6" value="&lt;font style=&quot;font-size: 19px;&quot;&gt;Peer&lt;br&gt;&lt;br&gt;&lt;br&gt;&lt;br&gt;&lt;br&gt;&lt;br&gt;&lt;br&gt;&lt;br&gt;&lt;br&gt;&lt;br&gt;&lt;br&gt;&lt;/font&gt;" style="html=1;overflow=block;blockSpacing=1;whiteSpace=wrap;fontSize=16.7;fontColor=#3a414a;spacing=3.8;strokeColor=#3a414a;strokeOpacity=100;rounded=1;absoluteArcSize=1;arcSize=9;strokeWidth=0.8;lucidId=gJdIC6EkD9Za;container=1;collapsible=0;" vertex="1" parent="1">
          <mxGeometry x="367" y="145.0300000000001" width="360" height="270" as="geometry" />
        </mxCell>
        <mxCell id="80n4Q8HTgA_iZEEhI7hq-7" value="&lt;span style=&quot;font-size: 18px;&quot;&gt;Enclave&lt;br&gt;&lt;br&gt;&lt;br&gt;&lt;br&gt;&lt;br&gt;&lt;/span&gt;" style="html=1;overflow=block;blockSpacing=1;whiteSpace=wrap;fontSize=16.7;spacing=3.8;strokeColor=#82b366;strokeOpacity=100;rounded=1;absoluteArcSize=1;arcSize=9;strokeWidth=0.8;lucidId=gJdI5SxZYz~T;fillColor=#d5e8d4;" vertex="1" parent="80n4Q8HTgA_iZEEhI7hq-6">
          <mxGeometry x="28" y="51" width="109" height="112" as="geometry" />
        </mxCell>
        <mxCell id="80n4Q8HTgA_iZEEhI7hq-8" style="edgeStyle=orthogonalEdgeStyle;rounded=0;orthogonalLoop=1;jettySize=auto;html=1;entryX=0;entryY=0.5;entryDx=0;entryDy=0;exitX=-0.016;exitY=0.705;exitDx=0;exitDy=0;exitPerimeter=0;dashed=1;" edge="1" parent="80n4Q8HTgA_iZEEhI7hq-6" source="80n4Q8HTgA_iZEEhI7hq-9" target="80n4Q8HTgA_iZEEhI7hq-6">
          <mxGeometry relative="1" as="geometry">
            <Array as="points">
              <mxPoint x="39" y="135" />
              <mxPoint x="39" y="135" />
            </Array>
          </mxGeometry>
        </mxCell>
        <mxCell id="80n4Q8HTgA_iZEEhI7hq-9" value="&lt;font style=&quot;font-size: 18px;&quot;&gt;chaincode&lt;/font&gt;" style="html=1;overflow=block;blockSpacing=1;whiteSpace=wrap;fontSize=16.7;fontColor=#3a414a;spacing=3.8;strokeColor=#3a414a;strokeOpacity=100;rounded=1;absoluteArcSize=1;arcSize=9;strokeWidth=0.8;lucidId=gJdI5SxZYz~T;" vertex="1" parent="80n4Q8HTgA_iZEEhI7hq-6">
          <mxGeometry x="39" y="80" width="85" height="78" as="geometry" />
        </mxCell>
        <mxCell id="80n4Q8HTgA_iZEEhI7hq-38" style="edgeStyle=orthogonalEdgeStyle;rounded=0;orthogonalLoop=1;jettySize=auto;html=1;entryX=1;entryY=0.5;entryDx=0;entryDy=0;" edge="1" parent="80n4Q8HTgA_iZEEhI7hq-6" source="80n4Q8HTgA_iZEEhI7hq-10" target="80n4Q8HTgA_iZEEhI7hq-37">
          <mxGeometry relative="1" as="geometry">
            <Array as="points">
              <mxPoint x="278" y="249" />
              <mxPoint x="177" y="249" />
            </Array>
          </mxGeometry>
        </mxCell>
        <mxCell id="80n4Q8HTgA_iZEEhI7hq-39" value="&lt;b style=&quot;font-size: 16px;&quot;&gt;&lt;font color=&quot;#336600&quot;&gt;10. Update&lt;br&gt;Merkle Tree&lt;/font&gt;&lt;/b&gt;" style="edgeLabel;html=1;align=center;verticalAlign=middle;resizable=0;points=[];" vertex="1" connectable="0" parent="80n4Q8HTgA_iZEEhI7hq-38">
          <mxGeometry x="0.4731" y="1" relative="1" as="geometry">
            <mxPoint x="16" y="-10" as="offset" />
          </mxGeometry>
        </mxCell>
        <mxCell id="80n4Q8HTgA_iZEEhI7hq-10" value="&lt;font style=&quot;font-size: 19px;&quot;&gt;worldstate&lt;/font&gt;" style="html=1;overflow=block;blockSpacing=1;whiteSpace=wrap;shape=mxgraph.aws3.dynamo_db;labelPosition=center;verticalLabelPosition=bottom;align=center;verticalAlign=top;pointerEvents=1;fontSize=16.7;fontColor=#3a414a;spacing=3.8;strokeColor=#3a414a;strokeOpacity=100;rounded=1;absoluteArcSize=1;arcSize=9;fillColor=#2e73b8;strokeWidth=0.8;lucidId=gJdIeH.mhM4w;" vertex="1" parent="80n4Q8HTgA_iZEEhI7hq-6">
          <mxGeometry x="253" y="163" width="90" height="75" as="geometry" />
        </mxCell>
        <mxCell id="80n4Q8HTgA_iZEEhI7hq-11" value="Block &amp;amp; Txn&lt;br&gt;Validator" style="html=1;overflow=block;blockSpacing=1;whiteSpace=wrap;fontSize=16.7;fontColor=#3a414a;spacing=3.8;strokeColor=#3a414a;strokeOpacity=100;rounded=1;absoluteArcSize=1;arcSize=9;strokeWidth=0.8;lucidId=gJdIPFnTu.oT;" vertex="1" parent="80n4Q8HTgA_iZEEhI7hq-6">
          <mxGeometry x="245.5" y="12" width="105" height="45" as="geometry" />
        </mxCell>
        <mxCell id="80n4Q8HTgA_iZEEhI7hq-12" value="&lt;font style=&quot;font-size: 19px;&quot;&gt;Ledger&lt;/font&gt;" style="html=1;overflow=block;blockSpacing=1;whiteSpace=wrap;shape=cylinder3;direction=south;size=10;anchorPointDirection=0;boundedLbl=1;fontSize=16.7;fontColor=#3a414a;spacing=3.8;strokeColor=#3a414a;strokeOpacity=100;rounded=1;absoluteArcSize=1;arcSize=9;strokeWidth=0.8;lucidId=gJdIh2kn3Ske;" vertex="1" parent="80n4Q8HTgA_iZEEhI7hq-6">
          <mxGeometry x="245.5" y="113" width="105" height="44" as="geometry" />
        </mxCell>
        <mxCell id="80n4Q8HTgA_iZEEhI7hq-13" value="" style="html=1;jettySize=18;whiteSpace=wrap;fontSize=13;strokeColor=#3a414a;strokeOpacity=100;strokeWidth=0.8;rounded=0;arcSize=12;edgeStyle=orthogonalEdgeStyle;startArrow=none;endArrow=block;endFill=1;exitX=1.005;exitY=0.5;exitPerimeter=0;entryX=0;entryY=0.22;entryPerimeter=0;lucidId=gJdI9AyTRsS.;entryDx=0;entryDy=0;curved=0;" edge="1" parent="80n4Q8HTgA_iZEEhI7hq-6" source="80n4Q8HTgA_iZEEhI7hq-9" target="80n4Q8HTgA_iZEEhI7hq-10">
          <mxGeometry width="100" height="100" relative="1" as="geometry">
            <Array as="points">
              <mxPoint x="233" y="119" />
              <mxPoint x="233" y="182" />
              <mxPoint x="253" y="182" />
            </Array>
          </mxGeometry>
        </mxCell>
        <mxCell id="80n4Q8HTgA_iZEEhI7hq-14" value="&lt;font style=&quot;font-size: 16px;&quot;&gt;2. get_state&lt;/font&gt;" style="text;html=1;resizable=0;labelBackgroundColor=default;align=center;verticalAlign=middle;fontStyle=1;fontColor=#333333;fontSize=13.3;" vertex="1" parent="80n4Q8HTgA_iZEEhI7hq-13">
          <mxGeometry x="-0.47838870128141253" relative="1" as="geometry">
            <mxPoint x="9" y="-12" as="offset" />
          </mxGeometry>
        </mxCell>
        <mxCell id="80n4Q8HTgA_iZEEhI7hq-15" value="" style="html=1;jettySize=18;whiteSpace=wrap;fontSize=13;strokeColor=#3a414a;strokeOpacity=100;strokeWidth=0.8;rounded=1;arcSize=12;edgeStyle=orthogonalEdgeStyle;startArrow=none;endArrow=block;endFill=1;exitX=0.5;exitY=1.008;exitPerimeter=0;entryX=0.5;entryY=-0.009;entryPerimeter=0;lucidId=gJdIpPk4oHPC;" edge="1" parent="80n4Q8HTgA_iZEEhI7hq-6" source="80n4Q8HTgA_iZEEhI7hq-11" target="80n4Q8HTgA_iZEEhI7hq-12">
          <mxGeometry width="100" height="100" relative="1" as="geometry">
            <Array as="points" />
          </mxGeometry>
        </mxCell>
        <mxCell id="80n4Q8HTgA_iZEEhI7hq-17" style="edgeStyle=orthogonalEdgeStyle;rounded=0;orthogonalLoop=1;jettySize=auto;html=1;entryX=0.001;entryY=0.417;entryDx=0;entryDy=0;entryPerimeter=0;exitX=0.002;exitY=0.423;exitDx=0;exitDy=0;exitPerimeter=0;dashed=1;startArrow=classic;startFill=1;endArrow=none;endFill=0;" edge="1" parent="80n4Q8HTgA_iZEEhI7hq-6" source="80n4Q8HTgA_iZEEhI7hq-9" target="80n4Q8HTgA_iZEEhI7hq-6">
          <mxGeometry relative="1" as="geometry">
            <Array as="points">
              <mxPoint x="29" y="113" />
            </Array>
          </mxGeometry>
        </mxCell>
        <mxCell id="80n4Q8HTgA_iZEEhI7hq-37" value="&lt;font style=&quot;font-size: 17px;&quot;&gt;Merkle Tree Component&lt;/font&gt;" style="html=1;overflow=block;blockSpacing=1;whiteSpace=wrap;fontSize=16.7;spacing=3.8;strokeColor=#82b366;strokeOpacity=100;rounded=1;absoluteArcSize=1;arcSize=9;strokeWidth=0.8;lucidId=gJdI5SxZYz~T;fillColor=#d5e8d4;" vertex="1" parent="80n4Q8HTgA_iZEEhI7hq-6">
          <mxGeometry y="226.99999999999994" width="120" height="43" as="geometry" />
        </mxCell>
        <mxCell id="80n4Q8HTgA_iZEEhI7hq-41" style="edgeStyle=orthogonalEdgeStyle;rounded=0;orthogonalLoop=1;jettySize=auto;html=1;entryX=1;entryY=0.654;entryDx=0;entryDy=0;entryPerimeter=0;" edge="1" parent="80n4Q8HTgA_iZEEhI7hq-6" source="80n4Q8HTgA_iZEEhI7hq-10" target="80n4Q8HTgA_iZEEhI7hq-9">
          <mxGeometry relative="1" as="geometry">
            <Array as="points">
              <mxPoint x="223" y="203" />
              <mxPoint x="223" y="131" />
            </Array>
          </mxGeometry>
        </mxCell>
        <mxCell id="80n4Q8HTgA_iZEEhI7hq-42" value="&lt;font style=&quot;font-size: 16px;&quot; color=&quot;#336600&quot;&gt;&lt;b&gt;2a. Return v&lt;br&gt;&amp;amp; MPath&amp;nbsp;&lt;/b&gt;&lt;/font&gt;" style="edgeLabel;html=1;align=center;verticalAlign=middle;resizable=0;points=[];" vertex="1" connectable="0" parent="80n4Q8HTgA_iZEEhI7hq-41">
          <mxGeometry x="0.3906" y="3" relative="1" as="geometry">
            <mxPoint x="-12" y="29" as="offset" />
          </mxGeometry>
        </mxCell>
        <mxCell id="80n4Q8HTgA_iZEEhI7hq-43" value="&lt;b style=&quot;font-size: 16px;&quot;&gt;&lt;font color=&quot;#336600&quot;&gt;2b. Verify v&lt;br&gt;using root M&lt;/font&gt;&lt;/b&gt;" style="edgeStyle=orthogonalEdgeStyle;rounded=0;orthogonalLoop=1;jettySize=auto;html=1;entryX=0.202;entryY=0.99;entryDx=0;entryDy=0;entryPerimeter=0;exitX=0.75;exitY=1;exitDx=0;exitDy=0;" edge="1" parent="80n4Q8HTgA_iZEEhI7hq-6" source="80n4Q8HTgA_iZEEhI7hq-9" target="80n4Q8HTgA_iZEEhI7hq-9">
          <mxGeometry x="0.1504" y="20" relative="1" as="geometry">
            <Array as="points">
              <mxPoint x="103" y="175" />
              <mxPoint x="56" y="175" />
            </Array>
            <mxPoint as="offset" />
          </mxGeometry>
        </mxCell>
        <mxCell id="80n4Q8HTgA_iZEEhI7hq-50" value="&lt;span style=&quot;font-size: 15px;&quot;&gt;Key Enclave&lt;br&gt;&lt;/span&gt;" style="html=1;overflow=block;blockSpacing=1;whiteSpace=wrap;fontSize=16.7;spacing=3.8;strokeColor=#82b366;strokeOpacity=100;rounded=1;absoluteArcSize=1;arcSize=9;strokeWidth=0.8;lucidId=gJdI5SxZYz~T;fillColor=#d5e8d4;" vertex="1" parent="80n4Q8HTgA_iZEEhI7hq-6">
          <mxGeometry x="28" y="5.0499999999999545" width="107" height="34" as="geometry" />
        </mxCell>
        <mxCell id="80n4Q8HTgA_iZEEhI7hq-52" style="edgeStyle=orthogonalEdgeStyle;rounded=0;orthogonalLoop=1;jettySize=auto;html=1;exitX=0.081;exitY=-0.041;exitDx=0;exitDy=0;entryX=0;entryY=0.25;entryDx=0;entryDy=0;exitPerimeter=0;" edge="1" parent="80n4Q8HTgA_iZEEhI7hq-6" source="80n4Q8HTgA_iZEEhI7hq-9" target="80n4Q8HTgA_iZEEhI7hq-9">
          <mxGeometry relative="1" as="geometry">
            <mxPoint x="-47" y="25.049999999999955" as="targetPoint" />
            <Array as="points">
              <mxPoint x="46" y="35" />
              <mxPoint x="13" y="35" />
              <mxPoint x="13" y="100" />
            </Array>
          </mxGeometry>
        </mxCell>
        <mxCell id="80n4Q8HTgA_iZEEhI7hq-53" value="&lt;b&gt;&lt;font style=&quot;font-size: 16px;&quot; color=&quot;#336600&quot;&gt;1a. Agree M&lt;/font&gt;&lt;/b&gt;" style="edgeLabel;html=1;align=center;verticalAlign=middle;resizable=0;points=[];" vertex="1" connectable="0" parent="80n4Q8HTgA_iZEEhI7hq-52">
          <mxGeometry x="0.0847" y="-1" relative="1" as="geometry">
            <mxPoint x="-29" y="-5" as="offset" />
          </mxGeometry>
        </mxCell>
        <mxCell id="80n4Q8HTgA_iZEEhI7hq-18" value="" style="html=1;jettySize=18;whiteSpace=wrap;fontSize=13;strokeColor=#3a414a;strokeOpacity=100;strokeWidth=0.8;rounded=1;arcSize=12;edgeStyle=orthogonalEdgeStyle;startArrow=none;endArrow=block;endFill=1;exitX=1.005;exitY=0.5;exitPerimeter=0;lucidId=gJdIXWOxPbk5;" edge="1" parent="1">
          <mxGeometry width="100" height="100" relative="1" as="geometry">
            <Array as="points" />
            <mxPoint x="125.375" y="256.5300000000001" as="sourcePoint" />
            <mxPoint x="367" y="257.0300000000001" as="targetPoint" />
          </mxGeometry>
        </mxCell>
        <mxCell id="80n4Q8HTgA_iZEEhI7hq-19" value="&lt;font color=&quot;#336600&quot; size=&quot;1&quot;&gt;&lt;span style=&quot;caret-color: rgb(51, 51, 51);&quot;&gt;&lt;b style=&quot;font-size: 16px;&quot;&gt;1. Invoke Chaincode with M&lt;/b&gt;&lt;/span&gt;&lt;/font&gt;" style="text;html=1;resizable=0;labelBackgroundColor=default;align=center;verticalAlign=middle;" vertex="1" parent="80n4Q8HTgA_iZEEhI7hq-18">
          <mxGeometry x="-0.6624911630150677" relative="1" as="geometry">
            <mxPoint x="69" y="-12" as="offset" />
          </mxGeometry>
        </mxCell>
        <mxCell id="80n4Q8HTgA_iZEEhI7hq-20" style="edgeStyle=orthogonalEdgeStyle;rounded=0;orthogonalLoop=1;jettySize=auto;html=1;exitX=0;exitY=0;exitDx=0;exitDy=0;" edge="1" parent="80n4Q8HTgA_iZEEhI7hq-18" source="80n4Q8HTgA_iZEEhI7hq-19" target="80n4Q8HTgA_iZEEhI7hq-19">
          <mxGeometry relative="1" as="geometry" />
        </mxCell>
        <mxCell id="80n4Q8HTgA_iZEEhI7hq-21" style="edgeStyle=orthogonalEdgeStyle;rounded=0;orthogonalLoop=1;jettySize=auto;html=1;exitX=0;exitY=0;exitDx=0;exitDy=0;" edge="1" parent="80n4Q8HTgA_iZEEhI7hq-18" source="80n4Q8HTgA_iZEEhI7hq-19" target="80n4Q8HTgA_iZEEhI7hq-19">
          <mxGeometry relative="1" as="geometry" />
        </mxCell>
        <mxCell id="80n4Q8HTgA_iZEEhI7hq-22" value="" style="html=1;jettySize=18;whiteSpace=wrap;overflow=block;blockSpacing=1;fontSize=13;strokeColor=#3a414a;strokeOpacity=100;strokeWidth=0.8;rounded=1;arcSize=12;edgeStyle=orthogonalEdgeStyle;startArrow=none;endArrow=block;endFill=1;exitX=0.5;exitY=1.005;exitPerimeter=0;lucidId=gJdI6e9lcOTb;entryX=0.157;entryY=0.992;entryDx=0;entryDy=0;entryPerimeter=0;" edge="1" parent="1" source="80n4Q8HTgA_iZEEhI7hq-4" target="80n4Q8HTgA_iZEEhI7hq-4">
          <mxGeometry width="100" height="100" relative="1" as="geometry">
            <Array as="points">
              <mxPoint x="95" y="295.08000000000004" />
              <mxPoint x="95" y="320.08000000000004" />
              <mxPoint x="62" y="320.08000000000004" />
            </Array>
            <mxPoint x="45" y="340.08000000000004" as="targetPoint" />
          </mxGeometry>
        </mxCell>
        <mxCell id="80n4Q8HTgA_iZEEhI7hq-23" value="" style="html=1;jettySize=18;whiteSpace=wrap;fontSize=13;strokeColor=#3a414a;strokeOpacity=100;strokeWidth=0.8;rounded=1;arcSize=12;edgeStyle=orthogonalEdgeStyle;startArrow=none;endArrow=block;endFill=1;exitX=0.707;exitY=-0.005;exitPerimeter=0;entryX=-0.002;entryY=0.5;entryPerimeter=0;lucidId=gJdIMfJJn0Pu;" edge="1" parent="1" source="80n4Q8HTgA_iZEEhI7hq-4" target="80n4Q8HTgA_iZEEhI7hq-5">
          <mxGeometry width="100" height="100" relative="1" as="geometry">
            <Array as="points" />
          </mxGeometry>
        </mxCell>
        <mxCell id="80n4Q8HTgA_iZEEhI7hq-24" value="" style="html=1;jettySize=18;whiteSpace=wrap;fontSize=13;strokeColor=#3a414a;strokeOpacity=100;strokeWidth=0.8;rounded=1;arcSize=12;edgeStyle=orthogonalEdgeStyle;startArrow=none;endArrow=block;endFill=1;exitX=0.767;exitY=-0.005;exitPerimeter=0;entryX=0.247;entryY=-0.005;entryPerimeter=0;lucidId=gJdIUVIgrSRE;" edge="1" parent="1" source="80n4Q8HTgA_iZEEhI7hq-5" target="80n4Q8HTgA_iZEEhI7hq-5">
          <mxGeometry width="100" height="100" relative="1" as="geometry">
            <Array as="points">
              <mxPoint x="315" y="50.030000000000086" generated="1" />
              <mxPoint x="237" y="50.030000000000086" generated="1" />
            </Array>
          </mxGeometry>
        </mxCell>
        <mxCell id="80n4Q8HTgA_iZEEhI7hq-25" value="" style="html=1;jettySize=18;whiteSpace=wrap;fontSize=13;strokeColor=#3a414a;strokeOpacity=100;strokeWidth=0.8;rounded=1;arcSize=12;edgeStyle=orthogonalEdgeStyle;startArrow=none;endArrow=block;endFill=1;lucidId=gJdIGSDJXt0t;" edge="1" parent="1">
          <mxGeometry width="100" height="100" relative="1" as="geometry">
            <Array as="points" />
            <mxPoint x="367" y="280.0300000000001" as="sourcePoint" />
            <mxPoint x="125" y="280.0300000000001" as="targetPoint" />
          </mxGeometry>
        </mxCell>
        <mxCell id="80n4Q8HTgA_iZEEhI7hq-26" value="&lt;font style=&quot;font-size: 16px;&quot;&gt;3. Return Response&lt;/font&gt;" style="text;html=1;resizable=0;labelBackgroundColor=default;align=center;verticalAlign=middle;fontStyle=1;fontColor=#333333;fontSize=13.3;" vertex="1" parent="80n4Q8HTgA_iZEEhI7hq-25">
          <mxGeometry x="0.5066110514761524" relative="1" as="geometry">
            <mxPoint x="24" y="-12" as="offset" />
          </mxGeometry>
        </mxCell>
        <mxCell id="80n4Q8HTgA_iZEEhI7hq-27" value="" style="html=1;jettySize=18;whiteSpace=wrap;fontSize=13;strokeColor=#3a414a;strokeOpacity=100;strokeWidth=0.8;rounded=1;arcSize=12;edgeStyle=orthogonalEdgeStyle;startArrow=none;endArrow=block;endFill=1;exitX=1.002;exitY=0.5;exitPerimeter=0;entryX=0.5;entryY=-0.008;entryPerimeter=0;lucidId=gJdI1uD7Hwsn;" edge="1" parent="1" source="80n4Q8HTgA_iZEEhI7hq-5" target="80n4Q8HTgA_iZEEhI7hq-11">
          <mxGeometry width="100" height="100" relative="1" as="geometry">
            <Array as="points" />
          </mxGeometry>
        </mxCell>
        <mxCell id="80n4Q8HTgA_iZEEhI7hq-28" style="edgeStyle=orthogonalEdgeStyle;rounded=0;orthogonalLoop=1;jettySize=auto;html=1;entryX=1;entryY=0.5;entryDx=0;entryDy=0;" edge="1" parent="1" source="80n4Q8HTgA_iZEEhI7hq-5" target="80n4Q8HTgA_iZEEhI7hq-30">
          <mxGeometry relative="1" as="geometry">
            <mxPoint x="770" y="480.08000000000004" as="targetPoint" />
            <Array as="points">
              <mxPoint x="750" y="108.08000000000004" />
              <mxPoint x="750" y="465.08000000000004" />
            </Array>
          </mxGeometry>
        </mxCell>
        <mxCell id="80n4Q8HTgA_iZEEhI7hq-29" value="&lt;font style=&quot;font-size: 19px;&quot;&gt;Peer&lt;br&gt;&lt;br&gt;&lt;br&gt;&lt;br&gt;&lt;br&gt;&lt;br&gt;&lt;br&gt;&lt;br&gt;&lt;br&gt;&lt;br&gt;&lt;br&gt;&lt;br&gt;&lt;/font&gt;" style="html=1;overflow=block;blockSpacing=1;whiteSpace=wrap;fontSize=16.7;fontColor=#3a414a;spacing=3.8;strokeColor=#3a414a;strokeOpacity=100;rounded=1;absoluteArcSize=1;arcSize=9;strokeWidth=0.8;lucidId=gJdIC6EkD9Za;container=1;collapsible=0;" vertex="1" parent="1">
          <mxGeometry x="487" y="430.0300000000001" width="124" height="70.05" as="geometry" />
        </mxCell>
        <mxCell id="80n4Q8HTgA_iZEEhI7hq-34" value="&lt;font style=&quot;font-size: 17px;&quot;&gt;Merkle Tree Component&lt;/font&gt;" style="html=1;overflow=block;blockSpacing=1;whiteSpace=wrap;fontSize=16.7;spacing=3.8;strokeColor=#82b366;strokeOpacity=100;rounded=1;absoluteArcSize=1;arcSize=9;strokeWidth=0.8;lucidId=gJdI5SxZYz~T;fillColor=#d5e8d4;" vertex="1" parent="80n4Q8HTgA_iZEEhI7hq-29">
          <mxGeometry y="27" width="120" height="43" as="geometry" />
        </mxCell>
        <mxCell id="80n4Q8HTgA_iZEEhI7hq-30" value="&lt;font style=&quot;font-size: 19px;&quot;&gt;Peer&lt;br&gt;&lt;br&gt;&lt;br&gt;&lt;br&gt;&lt;br&gt;&lt;br&gt;&lt;br&gt;&lt;br&gt;&lt;br&gt;&lt;br&gt;&lt;br&gt;&lt;br&gt;&lt;/font&gt;" style="html=1;overflow=block;blockSpacing=1;whiteSpace=wrap;fontSize=16.7;fontColor=#3a414a;spacing=3.8;strokeColor=#3a414a;strokeOpacity=100;rounded=1;absoluteArcSize=1;arcSize=9;strokeWidth=0.8;lucidId=gJdIC6EkD9Za;container=1;collapsible=0;" vertex="1" parent="1">
          <mxGeometry x="607" y="430.0300000000001" width="118" height="70.05" as="geometry" />
        </mxCell>
        <mxCell id="80n4Q8HTgA_iZEEhI7hq-35" value="&lt;font style=&quot;font-size: 17px;&quot;&gt;Merkle Tree Component&lt;/font&gt;" style="html=1;overflow=block;blockSpacing=1;whiteSpace=wrap;fontSize=16.7;spacing=3.8;strokeColor=#82b366;strokeOpacity=100;rounded=1;absoluteArcSize=1;arcSize=9;strokeWidth=0.8;lucidId=gJdI5SxZYz~T;fillColor=#d5e8d4;" vertex="1" parent="80n4Q8HTgA_iZEEhI7hq-30">
          <mxGeometry x="-2" y="27.049999999999955" width="120" height="43" as="geometry" />
        </mxCell>
        <mxCell id="80n4Q8HTgA_iZEEhI7hq-31" style="edgeStyle=orthogonalEdgeStyle;rounded=0;orthogonalLoop=1;jettySize=auto;html=1;exitX=1;exitY=1;exitDx=0;exitDy=0;dashed=1;dashPattern=12 12;fillColor=#d5e8d4;strokeColor=#7EA6E0;entryX=-0.008;entryY=0.158;entryDx=0;entryDy=0;entryPerimeter=0;" edge="1" parent="1" source="80n4Q8HTgA_iZEEhI7hq-4" target="80n4Q8HTgA_iZEEhI7hq-3">
          <mxGeometry relative="1" as="geometry">
            <mxPoint x="140" y="490.08000000000004" as="targetPoint" />
            <Array as="points">
              <mxPoint x="320" y="295.08000000000004" />
              <mxPoint x="320" y="441.08000000000004" />
            </Array>
            <mxPoint x="35" y="380.08000000000004" as="sourcePoint" />
          </mxGeometry>
        </mxCell>
        <mxCell id="80n4Q8HTgA_iZEEhI7hq-48" value="&lt;font color=&quot;#7ea6e0&quot; style=&quot;font-size: 16px;&quot;&gt;&lt;b&gt;3a. Invoke Endorse&lt;/b&gt;&lt;/font&gt;" style="edgeLabel;html=1;align=center;verticalAlign=middle;resizable=0;points=[];" vertex="1" connectable="0" parent="80n4Q8HTgA_iZEEhI7hq-31">
          <mxGeometry x="-0.6815" y="1" relative="1" as="geometry">
            <mxPoint x="24" y="14" as="offset" />
          </mxGeometry>
        </mxCell>
        <mxCell id="80n4Q8HTgA_iZEEhI7hq-46" style="edgeStyle=orthogonalEdgeStyle;rounded=0;orthogonalLoop=1;jettySize=auto;html=1;exitX=0.994;exitY=0.116;exitDx=0;exitDy=0;entryX=0;entryY=0.5;entryDx=0;entryDy=0;exitPerimeter=0;strokeColor=#336600;" edge="1" parent="1">
          <mxGeometry relative="1" as="geometry">
            <mxPoint x="124.55000000000007" y="219.73000000000013" as="sourcePoint" />
            <mxPoint x="367" y="469.5300000000001" as="targetPoint" />
            <Array as="points">
              <mxPoint x="350" y="220.08000000000004" />
              <mxPoint x="350" y="469.08000000000004" />
              <mxPoint x="367" y="469.08000000000004" />
            </Array>
          </mxGeometry>
        </mxCell>
        <mxCell id="80n4Q8HTgA_iZEEhI7hq-51" style="edgeStyle=orthogonalEdgeStyle;rounded=0;orthogonalLoop=1;jettySize=auto;html=1;entryX=0.5;entryY=0;entryDx=0;entryDy=0;" edge="1" parent="1" source="80n4Q8HTgA_iZEEhI7hq-5" target="80n4Q8HTgA_iZEEhI7hq-50">
          <mxGeometry relative="1" as="geometry" />
        </mxCell>
      </root>
    </mxGraphModel>
  </diagram>
</mxfile>
